<?xml version="1.0" standalone="no"?>
<!DOCTYPE svg PUBLIC "-//W3C//DTD SVG 20010904//EN"
 "http://www.w3.org/TR/2001/REC-SVG-20010904/DTD/svg10.dtd">
<svg version="1.0" xmlns="http://www.w3.org/2000/svg"
 width="217.000000pt" height="217.000000pt" viewBox="0 0 217.000000 217.000000"
 preserveAspectRatio="xMidYMid meet">
<metadata>
Created by potrace 1.11, written by Peter Selinger 2001-2013
</metadata>
<g transform="translate(0.000000,217.000000) scale(0.100000,-0.100000)"
fill="#000000" stroke="none">
<path d="M690 2156 c-144 -53 -270 -158 -303 -251 -23 -66 -22 -139 3 -189 15
-32 116 -174 171 -242 9 -11 -13 -27 -160 -115 -14 -7 -32 -19 -40 -26 -203
-151 -271 -243 -271 -366 0 -181 247 -183 486 -3 34 25 80 69 102 99 81 104
97 175 67 291 -9 33 -14 60 -13 61 9 8 129 65 137 65 5 0 1 -37 -10 -82 -10
-46 -21 -99 -24 -118 -3 -19 -8 -42 -10 -50 -2 -8 -7 -28 -10 -45 -2 -16 -7
-39 -9 -50 -20 -94 -69 -352 -85 -447 -32 -176 -62 -359 -67 -393 -2 -16 -6
-46 -9 -65 -3 -19 -8 -70 -10 -113 -4 -67 -2 -80 15 -97 40 -40 87 -10 96 60
3 25 9 68 14 95 5 28 12 66 14 85 3 19 12 71 21 114 8 44 17 91 20 105 5 26
103 474 109 501 3 8 18 74 36 145 38 157 34 140 49 195 52 190 87 267 185 395
95 125 187 212 263 247 63 30 68 31 107 17 36 -12 41 -18 44 -48 5 -54 -5 -77
-54 -123 -100 -93 -240 -281 -304 -406 -96 -190 -92 -307 12 -327 76 -15 212
165 341 451 35 76 72 168 82 204 12 41 28 72 44 85 90 73 193 126 272 140 52
9 69 23 69 55 0 48 -35 64 -107 50 -61 -13 -130 -42 -200 -85 l-42 -26 -11 40
c-26 97 -162 136 -285 82 -107 -47 -257 -189 -353 -333 -13 -21 -26 -37 -28
-36 -1 2 17 89 41 193 54 229 55 252 18 266 -33 12 -69 -1 -76 -28 -5 -17 -29
-119 -92 -394 l-27 -116 -82 -38 c-44 -21 -97 -47 -118 -56 l-36 -18 -43 57
c-123 162 -149 204 -149 238 0 81 74 163 200 221 41 19 81 38 89 42 8 4 19 20
24 36 8 24 6 31 -13 47 -26 21 -42 22 -90 4z m779 -657 c-56 -113 -112 -207
-149 -249 l-30 -35 16 40 c9 22 25 58 36 80 26 52 160 256 165 251 3 -2 -15
-42 -38 -87z m-824 -235 c0 -57 -3 -64 -44 -118 -86 -111 -255 -210 -349 -204
-45 3 -47 4 -50 35 -8 84 116 208 333 332 104 59 109 57 110 -45z"/>
</g>
</svg>
